IKResults
version=1
nRows=12
nColumns=42
inDegrees=yes

Units are S.I. units (second, meters, Newtons, ...)
Angles are in degrees.

endheader
time	pelvis_tilt	pelvis_list	pelvis_rotation	pelvis_tx	pelvis_ty	pelvis_tz	hip_flexion_r	hip_adduction_r	hip_rotation_r	knee_angle_r	knee_adduction_r	knee_angle_r_beta	ankle_angle_r	subtalar_angle_r	mtp_angle_r	hip_flexion_l	hip_adduction_l	hip_rotation_l	knee_angle_l	knee_adduction_l	knee_angle_l_beta	ankle_angle_l	subtalar_angle_l	mtp_angle_l	lumbar_extension	lumbar_bending	lumbar_rotation	arm_flex_r	arm_add_r	arm_rot_r	elbow_flex_r	pro_sup_r	wrist_flex_r	wrist_dev_r	arm_flex_l	arm_add_l	arm_rot_l	elbow_flex_l	pro_sup_l	wrist_flex_l	wrist_dev_l
      1.21167123	     -4.22009875	     -2.06130930	      4.43347420	      0.57137642	      0.96066989	      0.05135802	      6.41343742	     -1.36034395	    -15.67387169	      9.42159548	      6.47602164	      0.16443786	     10.67665852	     -9.32457466	     13.85976046	     33.04805373	     -9.10691491	    -11.89511993	     14.03815874	      5.09547410	      0.24501209	    -28.13477574	     -8.74526880	      7.15294558	    -15.33528036	      0.36118707	     -7.91708312	     -8.11286104	    -31.37892193	     31.97202956	     97.67637289	     87.37467252	      0.00000000	      0.00000000	    -11.46056161	    -33.07719585	     83.67929174	      3.14977622	     85.81722477	      0.00000000	      0.00000000
      1.21832877	     -4.32506865	     -2.02486154	      4.33357831	      0.57125889	      0.96051663	      0.05128361	      6.58802271	     -1.42988259	    -15.59240941	      9.50957756	      6.47602164	      0.16597344	     10.56781524	     -9.32551565	     13.38332241	     33.15126451	     -9.06792397	    -11.87617549	     14.02284292	      5.09547410	      0.24474478	    -28.48012551	     -8.71562934	      6.59886229	    -15.21681295	      0.30382058	     -7.89421759	     -8.02192680	    -31.46156780	     32.22838734	     97.51838476	     87.45754627	      0.00000000	      0.00000000	    -11.57901418	    -33.08189335	     84.04529364	      3.04188460	     85.56042082	      0.00000000	      0.00000000
      1.22498630	     -4.30891961	     -2.00423708	      4.34951407	      0.57119667	      0.96055597	      0.05112757	      6.57613532	     -1.46567833	    -15.63961841	      9.52647663	      6.47602164	      0.16626838	     10.57108502	     -9.32286127	     13.40206534	     33.13656172	     -8.98774972	    -11.74230955	     13.98680435	      5.09547410	      0.24411579	    -28.71983966	     -8.67374789	      6.40410244	    -15.24234037	      0.30042656	     -7.96324124	     -7.94433493	    -31.47527154	     32.28876257	     97.50252389	     87.43986440	      0.00000000	      0.00000000	    -11.62487794	    -33.05912632	     83.87325745	      3.04936559	     85.69543948	      0.00000000	      0.00000000
      1.23164384	     -4.25180142	     -1.94201403	      4.35614079	      0.57116134	      0.96068874	      0.05101394	      6.49635042	     -1.53961774	    -15.65515296	      9.49427562	      6.47602164	      0.16570637	     10.51357052	     -9.32068606	     13.27715508	     33.04609587	     -8.88019336	    -11.66361054	     13.92093094	      5.09547410	      0.24296608	    -28.97867648	     -8.61270899	      6.20484540	    -15.31455246	      0.24776321	     -7.94731226	     -7.96374161	    -31.45439064	     32.19511582	     97.53386697	     87.40742119	      0.00000000	      0.00000000	    -11.52407437	    -33.04498735	     83.78738800	      3.09562089	     85.72005911	      0.00000000	      0.00000000
      1.23830137	     -4.39078501	     -2.00257895	      4.28226171	      0.57103028	      0.96044045	      0.05093050	      6.70335003	     -1.49322568	    -15.55843200	      9.56434615	      6.47602164	      0.16692933	     10.57332957	     -9.32176920	     13.39578484	     33.24725517	     -8.91963619	    -11.56373641	     13.96980985	      5.09547410	      0.24381918	    -29.23732316	     -8.57350393	      5.82879322	    -15.15898456	      0.31035313	     -7.86735197	     -8.00431205	    -31.48768866	     32.14591375	     97.53378605	     87.46100872	      0.00000000	      0.00000000	    -11.56610028	    -33.03585780	     84.10346848	      3.08438270	     85.52463102	      0.00000000	      0.00000000
      1.24495890	     -4.24159491	     -1.89986090	      4.31329583	      0.57096653	      0.96068369	      0.05083393	      6.52811945	     -1.60627097	    -15.65306746	      9.56697914	      6.47602164	      0.16697529	     10.55554082	     -9.30983807	     13.17738836	     33.06667547	     -8.76839887	    -11.48670834	     13.94334761	      5.09547410	      0.24335732	    -29.25398235	     -8.48099837	      6.22988221	    -15.37047327	      0.25204304	     -7.59564599	     -8.45331626	    -31.34991573	     31.13242369	     98.30591579	     87.07027146	      0.00000000	      0.00000000	    -10.86450267	    -32.80104504	     82.34988774	      3.41818449	     86.76280081	      0.00000000	      0.00000000
      1.25161644	     -4.30269511	     -1.89232930	      4.27539263	      0.57091709	      0.96064768	      0.05064045	      6.60312810	     -1.63429109	    -15.62061874	      9.56364526	      6.47602164	      0.16691710	     10.52356976	     -9.31226142	     13.29657064	     33.10741962	     -8.70572907	    -11.34731952	     13.84963286	      5.09547410	      0.24172169	    -29.63426122	     -8.42814261	      5.72383747	    -15.27941768	      0.22493048	     -7.96446673	     -7.85436763	    -31.53511296	     32.31193044	     97.49926172	     87.43029980	      0.00000000	      0.00000000	    -11.58975885	    -32.94415115	     83.51031801	      3.03885811	     85.92943219	      0.00000000	      0.00000000
      1.25827397	     -4.41874575	     -1.93650313	      4.21121163	      0.57081428	      0.96043225	      0.05057805	      6.77893978	     -1.60450602	    -15.53841520	      9.62637708	      6.47602164	      0.16801198	     10.53861943	     -9.31863336	     13.35080917	     33.27646200	     -8.73026363	    -11.28637199	     13.90540407	      5.09547410	      0.24269508	    -29.86500890	     -8.35850692	      5.24331880	    -15.14031481	      0.26965895	     -7.87599604	     -7.90725005	    -31.55963582	     32.25413025	     97.52678677	     87.42519104	      0.00000000	      0.00000000	    -11.60883631	    -32.96048921	     83.99044675	      3.03307652	     85.60219054	      0.00000000	      0.00000000
      1.26493151	     -4.43100471	     -1.89804771	      4.16926363	      0.57074883	      0.96043856	      0.05048407	      6.81841801	     -1.66157764	    -15.53119389	      9.67351574	      6.47602164	      0.16883470	     10.54509082	     -9.31171297	     13.30632676	     33.27249988	     -8.65792571	    -11.22013627	     13.85936372	      5.09547410	      0.24189153	    -30.11240337	     -8.30924570	      4.95382118	    -15.13352529	      0.23578697	     -7.85751921	     -7.88182390	    -31.58497904	     32.28910621	     97.50539578	     87.44167273	      0.00000000	      0.00000000	    -11.60272754	    -32.94076131	     84.04401409	      3.04493605	     85.52578307	      0.00000000	      0.00000000
      1.27158904	     -4.38463582	     -1.89964317	      4.20588634	      0.57070835	      0.96051416	      0.05032818	      6.75529419	     -1.66527107	    -15.58093890	      9.64792279	      6.47602164	      0.16838802	     10.57684274	     -9.31275797	     13.54669334	     33.24228176	     -8.59074663	    -11.07023734	     13.85514174	      5.09547410	      0.24181784	    -30.24568945	     -8.21601689	      4.98754072	    -15.18490034	      0.26984011	     -7.83320211	     -7.94595028	    -31.55110608	     32.08433083	     97.60036664	     87.38756243	      0.00000000	      0.00000000	    -11.42279052	    -32.83663794	     83.42425467	      3.14894658	     85.94023417	      0.00000000	      0.00000000
      1.27824658	     -4.53218940	     -1.90463741	      4.10854782	      0.57058785	      0.96028984	      0.05020192	      6.98566299	     -1.69577254	    -15.49360930	      9.76130892	      6.47602164	      0.17036698	     10.58519046	     -9.30602192	     13.41432056	     33.40402125	     -8.56574111	    -10.98154213	     13.83595060	      5.09547410	      0.24148289	    -30.45370837	     -8.15319177	      4.62961715	    -15.01222637	      0.26037384	     -7.86425794	     -7.79626265	    -31.66543143	     32.47054179	     97.39938009	     87.50708858	      0.00000000	      0.00000000	    -11.63883946	    -32.83490291	     83.73135928	      3.06296262	     85.71143110	      0.00000000	      0.00000000
      1.28490411	     -4.51304581	     -1.89365551	      4.09561699	      0.57051599	      0.96030965	      0.05010252	      6.96103437	     -1.71058206	    -15.49776367	      9.73403472	      6.47602164	      0.16989096	     10.47363790	     -9.30707503	     13.06786352	     33.39458053	     -8.51248972	    -10.88123195	     13.82778542	      5.09547410	      0.24134038	    -30.68702992	     -8.05656814	      4.14781487	    -15.04208851	      0.26600819	     -7.77667444	     -7.91529192	    -31.64503867	     32.20627285	     97.54976063	     87.45741900	      0.00000000	      0.00000000	    -11.54606340	    -32.86342793	     84.10650299	      3.04781182	     85.50763936	      0.00000000	      0.00000000
